<svg id="svg" version="1.1" xmlns="http://www.w3.org/2000/svg" xmlns:xlink="http://www.w3.org/1999/xlink" width="400" height="400" viewBox="0, 0, 400,400"><g id="svgg"><path id="path0" d="M183.400 78.800 C 183.554 79.048,182.802 79.200,181.418 79.200 C 180.192 79.200,178.877 79.362,178.495 79.559 C 178.113 79.756,176.990 80.225,176.000 80.600 C 175.010 80.975,173.930 81.444,173.600 81.643 C 173.270 81.842,172.730 82.108,172.400 82.235 C 172.070 82.361,171.080 82.798,170.200 83.205 C 169.320 83.612,168.061 84.078,167.403 84.240 C 165.576 84.691,162.875 86.391,155.170 91.938 C 153.536 93.115,151.795 94.235,151.300 94.429 C 150.805 94.622,150.400 94.965,150.400 95.190 C 150.400 95.416,150.145 95.600,149.834 95.600 C 149.205 95.600,144.583 100.216,143.026 102.400 C 142.478 103.170,141.861 103.997,141.657 104.238 C 141.452 104.478,140.969 105.288,140.583 106.038 C 140.197 106.787,139.477 107.940,138.983 108.600 C 138.488 109.260,137.057 111.870,135.803 114.400 C 134.548 116.930,133.346 119.334,133.131 119.741 C 132.089 121.724,130.720 126.751,130.210 130.466 C 129.137 138.284,128.447 140.590,127.073 140.949 C 126.658 141.058,126.433 141.329,126.571 141.553 C 127.030 142.296,123.933 142.524,116.736 142.274 L 109.638 142.028 107.637 143.114 C 104.784 144.663,102.532 147.572,102.185 150.157 C 102.034 151.281,101.769 152.380,101.597 152.600 C 101.425 152.820,101.175 154.170,101.042 155.600 C 100.621 160.126,100.366 161.756,99.820 163.400 C 99.528 164.280,99.080 166.620,98.824 168.600 C 98.568 170.580,98.196 172.740,97.999 173.400 C 97.524 174.988,97.508 198.946,97.981 200.775 C 98.184 201.559,98.557 203.820,98.810 205.800 C 99.063 207.780,99.461 209.850,99.696 210.400 C 100.176 211.524,100.144 211.365,100.806 216.000 C 101.073 217.870,101.433 219.580,101.607 219.800 C 101.913 220.187,102.165 221.992,102.612 227.000 C 102.900 230.217,104.362 237.037,105.045 238.347 C 105.348 238.926,105.596 239.595,105.598 239.834 C 105.612 242.452,111.609 245.600,116.580 245.600 C 118.740 245.600,121.637 245.808,123.018 246.062 L 125.528 246.525 125.801 248.362 C 125.952 249.373,126.214 250.380,126.385 250.600 C 126.555 250.820,126.808 254.780,126.947 259.400 C 127.086 264.020,127.370 268.520,127.578 269.400 C 128.848 274.758,129.406 276.474,130.649 278.840 C 132.246 281.880,137.909 288.162,140.241 289.482 C 144.365 291.816,145.742 292.438,147.691 292.849 C 148.851 293.093,150.053 293.497,150.362 293.747 C 151.094 294.337,160.522 294.322,161.264 293.730 C 161.559 293.494,162.700 293.174,163.800 293.019 C 170.365 292.092,182.614 281.369,182.784 276.400 C 182.796 276.070,183.087 275.260,183.431 274.600 C 184.382 272.777,184.794 267.888,184.795 258.400 C 184.796 251.500,184.926 249.405,185.454 247.800 C 185.816 246.700,186.170 245.578,186.241 245.307 C 186.376 244.790,190.414 244.814,191.600 245.339 C 192.507 245.740,197.390 246.800,201.093 247.400 C 206.162 248.221,207.097 248.622,207.426 250.116 C 207.579 250.816,207.984 251.814,208.325 252.335 C 208.829 253.103,208.997 255.333,209.215 264.141 C 209.532 276.963,210.593 281.791,214.189 286.768 C 215.421 288.473,222.890 295.600,223.445 295.600 C 223.599 295.600,224.314 296.050,225.036 296.600 C 225.757 297.150,226.556 297.600,226.812 297.600 C 227.067 297.600,227.772 297.953,228.378 298.384 C 232.788 301.524,246.269 300.773,251.154 297.114 C 251.679 296.721,252.346 296.400,252.637 296.400 C 253.540 296.400,261.819 287.911,262.975 285.800 C 264.450 283.105,265.842 279.355,266.173 277.183 C 266.323 276.202,266.614 275.040,266.819 274.600 C 267.458 273.235,268.441 260.633,269.410 241.400 C 269.714 235.357,269.121 225.077,268.418 224.214 C 267.953 223.643,267.153 211.158,267.162 204.612 C 267.163 204.179,267.008 203.729,266.818 203.611 C 266.628 203.494,266.195 201.508,265.857 199.199 C 264.792 191.926,263.963 187.049,263.545 185.600 C 263.321 184.827,263.231 182.318,263.342 180.000 C 263.595 174.744,263.682 174.158,264.300 173.540 C 264.575 173.265,264.800 172.809,264.800 172.526 C 264.800 172.243,265.385 171.143,266.100 170.083 C 271.507 162.061,272.402 160.506,272.819 158.400 C 273.059 157.190,273.423 155.549,273.627 154.754 C 274.106 152.896,274.105 149.287,273.625 147.106 C 273.418 146.168,273.047 144.320,272.799 143.000 C 272.211 139.862,272.284 140.129,271.319 137.600 C 270.858 136.390,270.018 134.590,269.453 133.600 C 268.888 132.610,268.129 131.172,267.768 130.405 C 266.991 128.758,260.905 122.400,260.105 122.400 C 259.801 122.400,259.656 122.233,259.782 122.029 C 259.908 121.825,259.649 121.543,259.206 121.402 C 258.763 121.261,258.400 120.978,258.400 120.773 C 258.400 120.568,258.175 120.396,257.900 120.391 C 257.328 120.381,252.000 115.362,252.000 114.834 C 252.000 114.642,251.737 114.385,251.416 114.262 C 251.095 114.138,250.379 113.142,249.824 112.047 C 249.269 110.952,248.619 109.935,248.380 109.787 C 248.140 109.639,247.822 109.203,247.672 108.817 C 246.982 107.038,232.699 92.387,231.346 92.070 C 231.040 91.998,230.893 91.773,231.019 91.570 C 231.144 91.366,230.967 91.200,230.624 91.200 C 230.281 91.200,230.000 91.011,230.000 90.780 C 230.000 90.548,229.370 90.096,228.600 89.774 C 227.830 89.452,227.200 89.012,227.200 88.795 C 227.200 88.578,226.750 88.400,226.200 88.400 C 225.578 88.400,225.200 88.173,225.200 87.800 C 225.200 87.423,224.820 87.200,224.176 87.200 C 223.613 87.200,223.252 87.039,223.374 86.843 C 223.495 86.646,223.146 86.373,222.597 86.235 C 222.049 86.097,221.600 85.808,221.600 85.592 C 221.600 85.377,221.375 85.204,221.100 85.210 C 220.825 85.215,219.160 84.507,217.400 83.636 C 214.116 82.011,209.419 80.400,207.965 80.400 C 207.515 80.400,206.754 80.189,206.274 79.931 C 203.745 78.573,182.614 77.528,183.400 78.800 M201.600 88.916 C 203.690 89.241,207.110 90.072,209.200 90.762 C 211.290 91.452,213.706 92.208,214.569 92.442 C 220.566 94.069,237.600 108.374,237.600 111.783 L 237.600 112.800 231.100 112.846 C 224.302 112.894,210.460 113.356,196.200 114.009 C 191.580 114.220,183.120 114.530,177.400 114.697 L 167.000 115.000 164.700 116.393 C 163.435 117.160,162.400 117.900,162.400 118.038 C 162.400 118.177,161.872 118.954,161.227 119.766 C 160.582 120.577,159.932 121.817,159.782 122.521 C 159.632 123.224,159.092 125.060,158.581 126.600 C 156.153 133.922,155.887 135.466,155.612 143.800 C 155.412 149.886,155.483 152.518,155.908 154.800 C 156.215 156.450,156.768 159.780,157.135 162.200 C 158.759 172.888,164.861 181.452,173.286 184.868 L 177.400 186.536 186.800 186.678 C 191.970 186.756,201.330 186.638,207.600 186.417 C 213.870 186.195,224.940 185.825,232.200 185.595 C 245.340 185.178,245.417 185.170,249.269 183.933 C 254.267 182.328,254.153 182.259,254.775 187.261 C 255.058 189.537,255.373 192.030,255.474 192.800 C 255.576 193.570,255.752 195.280,255.865 196.600 C 255.978 197.920,256.235 199.171,256.435 199.380 C 256.636 199.589,256.800 200.588,256.800 201.600 C 256.800 202.612,256.985 203.625,257.210 203.850 C 258.391 205.031,258.659 253.084,257.546 263.800 C 257.340 265.780,257.080 268.480,256.969 269.800 C 256.858 271.120,256.608 272.560,256.414 273.000 C 256.220 273.440,255.757 275.110,255.385 276.710 C 252.401 289.549,235.581 294.351,226.066 285.079 C 222.732 281.830,220.400 276.895,220.400 273.088 C 220.400 271.478,220.243 269.989,220.050 269.780 C 219.615 269.306,219.088 245.965,219.500 245.356 C 219.665 245.112,220.340 244.627,221.000 244.278 C 225.314 242.002,226.149 238.025,222.993 234.793 L 221.438 233.200 215.723 233.200 L 210.008 233.200 208.314 235.000 L 206.620 236.800 202.716 236.800 C 197.077 236.800,188.022 233.601,183.869 230.142 C 182.329 228.858,179.382 228.834,177.754 230.091 C 174.541 232.570,174.637 231.920,174.406 252.800 C 174.176 273.587,174.521 270.938,171.345 276.303 C 168.335 281.387,164.400 283.175,156.200 283.183 C 146.464 283.192,142.330 280.442,138.680 271.526 L 137.809 269.400 137.695 207.000 C 137.618 164.974,137.718 143.555,138.002 141.400 C 138.233 139.640,138.601 136.760,138.820 135.000 C 139.038 133.240,139.393 131.395,139.608 130.900 C 140.499 128.853,140.782 128.070,141.593 125.400 C 142.061 123.860,142.614 122.287,142.822 121.905 C 143.030 121.523,143.200 120.954,143.200 120.639 C 143.200 120.325,144.000 118.748,144.977 117.134 C 145.954 115.520,147.566 112.848,148.559 111.196 C 150.712 107.611,158.200 100.085,161.704 97.982 C 163.607 96.840,167.526 94.351,169.372 93.113 C 170.708 92.216,181.774 89.202,184.600 88.965 C 186.360 88.817,188.070 88.537,188.400 88.342 C 189.221 87.858,196.968 88.194,201.600 88.916 M249.431 126.227 C 251.154 127.012,253.233 128.227,254.053 128.927 C 254.872 129.627,256.106 130.650,256.795 131.200 C 258.469 132.535,261.798 137.782,262.387 140.012 C 262.647 140.995,263.026 142.451,263.230 143.246 C 263.857 145.697,263.698 154.918,263.013 155.824 C 262.690 156.251,262.420 156.860,262.413 157.177 C 262.317 161.525,253.696 170.574,248.251 172.043 C 247.343 172.288,246.240 172.643,245.800 172.833 C 245.360 173.022,239.150 173.374,232.000 173.614 C 224.850 173.855,215.220 174.224,210.600 174.436 C 205.980 174.648,197.549 174.912,191.864 175.024 L 181.528 175.226 178.464 174.155 C 174.478 172.761,174.776 173.074,171.863 167.235 C 168.090 159.675,167.573 157.409,167.331 147.358 C 167.147 139.778,167.142 139.810,170.739 128.800 L 171.458 126.600 196.296 126.000 C 209.958 125.670,221.270 125.265,221.434 125.100 C 221.599 124.935,227.261 124.800,234.017 124.800 L 246.300 124.800 249.431 126.227 M123.504 147.111 C 123.644 147.531,121.661 148.800,120.865 148.800 C 120.574 148.800,120.535 146.948,120.782 144.849 C 120.816 144.559,123.357 146.672,123.504 147.111 M120.477 153.054 L 125.154 153.246 125.367 157.923 C 125.484 160.495,125.809 169.651,126.090 178.268 C 126.370 186.886,126.735 194.071,126.900 194.235 C 127.065 194.399,127.200 197.887,127.200 201.987 C 127.200 206.086,127.358 209.611,127.550 209.820 C 127.743 210.029,128.022 215.735,128.170 222.500 L 128.440 234.800 121.688 234.800 L 114.937 234.800 113.836 230.700 C 113.231 228.445,112.488 225.781,112.186 224.780 C 111.386 222.132,110.818 218.855,110.178 213.200 C 109.867 210.450,109.416 207.210,109.176 206.000 C 107.352 196.812,107.819 176.183,110.187 161.400 C 110.540 159.200,110.922 156.680,111.037 155.800 C 111.425 152.824,111.912 152.295,113.986 152.597 C 114.983 152.743,117.905 152.948,120.477 153.054 " stroke="none" fill="#0c0405" fill-rule="evenodd"></path><path id="path1" d="M221.776 125.584 C 221.565 125.795,217.614 126.057,212.996 126.166 C 208.378 126.275,197.196 126.575,188.147 126.834 L 171.695 127.305 171.009 129.753 C 169.324 135.771,168.707 137.862,168.366 138.719 C 167.873 139.956,167.931 153.340,168.439 155.600 C 168.662 156.590,168.980 158.120,169.147 159.000 C 169.751 162.181,174.726 172.029,176.060 172.683 C 180.071 174.647,185.064 174.735,218.800 173.433 C 248.776 172.277,247.049 172.515,253.242 168.690 C 256.889 166.438,261.594 160.143,261.601 157.504 C 261.602 157.227,261.962 156.411,262.401 155.690 C 263.293 154.228,263.573 146.262,262.819 143.828 C 262.610 143.153,262.219 141.717,261.950 140.638 C 261.334 138.163,257.218 131.837,255.720 131.062 C 255.103 130.743,254.239 130.082,253.799 129.594 C 253.360 129.106,251.405 127.917,249.457 126.953 L 245.913 125.200 234.037 125.200 C 226.982 125.200,222.004 125.356,221.776 125.584 " stroke="none" fill="#53c9e9" fill-rule="evenodd"></path><path id="path2" d="M221.434 125.100 C 221.270 125.265,209.958 125.670,196.296 126.000 L 171.458 126.600 170.739 128.800 C 167.142 139.810,167.147 139.778,167.331 147.358 C 167.573 157.409,168.090 159.675,171.863 167.235 C 174.776 173.074,174.478 172.761,178.464 174.155 L 181.528 175.226 191.864 175.024 C 197.549 174.912,205.980 174.648,210.600 174.436 C 215.220 174.224,224.850 173.855,232.000 173.614 C 239.150 173.374,245.360 173.022,245.800 172.833 C 246.240 172.643,247.343 172.288,248.251 172.043 C 253.696 170.574,262.317 161.525,262.413 157.177 C 262.420 156.860,262.690 156.251,263.013 155.824 C 263.698 154.918,263.857 145.697,263.230 143.246 C 263.026 142.451,262.647 140.995,262.387 140.012 C 261.798 137.782,258.469 132.535,256.795 131.200 C 256.106 130.650,254.872 129.627,254.053 128.927 C 253.233 128.227,251.154 127.012,249.431 126.227 L 246.300 124.800 234.017 124.800 C 227.261 124.800,221.599 124.935,221.434 125.100 M249.457 126.953 C 251.405 127.917,253.360 129.106,253.799 129.594 C 254.239 130.082,255.103 130.743,255.720 131.062 C 257.218 131.837,261.334 138.163,261.950 140.638 C 262.219 141.717,262.610 143.153,262.819 143.828 C 263.573 146.262,263.293 154.228,262.401 155.690 C 261.962 156.411,261.602 157.227,261.601 157.504 C 261.594 160.143,256.889 166.438,253.242 168.690 C 247.049 172.515,248.776 172.277,218.800 173.433 C 185.064 174.735,180.071 174.647,176.060 172.683 C 174.726 172.029,169.751 162.181,169.147 159.000 C 168.980 158.120,168.662 156.590,168.439 155.600 C 167.931 153.340,167.873 139.956,168.366 138.719 C 168.707 137.862,169.324 135.771,171.009 129.753 L 171.695 127.305 188.147 126.834 C 197.196 126.575,208.378 126.275,212.996 126.166 C 217.614 126.057,221.565 125.795,221.776 125.584 C 222.004 125.356,226.982 125.200,234.037 125.200 L 245.913 125.200 249.457 126.953 " stroke="none" fill="#000000" fill-rule="evenodd"></path><path id="path3" d="M188.400 88.342 C 188.070 88.537,186.360 88.817,184.600 88.965 C 181.774 89.202,170.708 92.216,169.372 93.113 C 167.526 94.351,163.607 96.840,161.704 97.982 C 158.200 100.085,150.712 107.611,148.559 111.196 C 147.566 112.848,145.954 115.520,144.977 117.134 C 144.000 118.748,143.200 120.325,143.200 120.639 C 143.200 120.954,143.030 121.523,142.822 121.905 C 142.614 122.287,142.061 123.860,141.593 125.400 C 140.782 128.070,140.499 128.853,139.608 130.900 C 139.393 131.395,139.038 133.240,138.820 135.000 C 138.601 136.760,138.233 139.640,138.002 141.400 C 137.718 143.555,137.618 164.974,137.695 207.000 L 137.809 269.400 138.680 271.526 C 142.330 280.442,146.464 283.192,156.200 283.183 C 164.400 283.175,168.335 281.387,171.345 276.303 C 174.521 270.938,174.176 273.587,174.406 252.800 C 174.637 231.920,174.541 232.570,177.754 230.091 C 179.382 228.834,182.329 228.858,183.869 230.142 C 188.022 233.601,197.077 236.800,202.716 236.800 L 206.620 236.800 208.314 235.000 L 210.008 233.200 215.723 233.200 L 221.438 233.200 222.993 234.793 C 226.149 238.025,225.314 242.002,221.000 244.278 C 220.340 244.627,219.665 245.112,219.500 245.356 C 219.088 245.965,219.615 269.306,220.050 269.780 C 220.243 269.989,220.400 271.478,220.400 273.088 C 220.400 276.895,222.732 281.830,226.066 285.079 C 235.581 294.351,252.401 289.549,255.385 276.710 C 255.757 275.110,256.220 273.440,256.414 273.000 C 256.608 272.560,256.858 271.120,256.969 269.800 C 257.080 268.480,257.340 265.780,257.546 263.800 C 258.659 253.084,258.391 205.031,257.210 203.850 C 256.985 203.625,256.800 202.612,256.800 201.600 C 256.800 200.588,256.636 199.589,256.435 199.380 C 256.235 199.171,255.978 197.920,255.865 196.600 C 255.752 195.280,255.576 193.570,255.474 192.800 C 255.373 192.030,255.058 189.537,254.775 187.261 C 254.153 182.259,254.267 182.328,249.269 183.933 C 245.417 185.170,245.340 185.178,232.200 185.595 C 224.940 185.825,213.870 186.195,207.600 186.417 C 201.330 186.638,191.970 186.756,186.800 186.678 L 177.400 186.536 173.286 184.868 C 164.861 181.452,158.759 172.888,157.135 162.200 C 156.768 159.780,156.215 156.450,155.908 154.800 C 155.483 152.518,155.412 149.886,155.612 143.800 C 155.887 135.466,156.153 133.922,158.581 126.600 C 159.092 125.060,159.632 123.224,159.782 122.521 C 159.932 121.817,160.582 120.577,161.227 119.766 C 161.872 118.954,162.400 118.177,162.400 118.038 C 162.400 117.900,163.435 117.160,164.700 116.393 L 167.000 115.000 177.400 114.697 C 183.120 114.530,191.580 114.220,196.200 114.009 C 210.460 113.356,224.302 112.894,231.100 112.846 L 237.600 112.800 237.600 111.783 C 237.600 108.374,220.566 94.069,214.569 92.442 C 213.706 92.208,211.290 91.452,209.200 90.762 C 203.242 88.795,190.204 87.278,188.400 88.342 M120.782 144.849 C 120.535 146.948,120.574 148.800,120.865 148.800 C 121.661 148.800,123.644 147.531,123.504 147.111 C 123.357 146.672,120.816 144.559,120.782 144.849 M111.708 153.267 C 111.454 153.780,111.152 154.920,111.037 155.800 C 110.922 156.680,110.540 159.200,110.187 161.400 C 107.819 176.183,107.352 196.812,109.176 206.000 C 109.416 207.210,109.867 210.450,110.178 213.200 C 110.818 218.855,111.386 222.132,112.186 224.780 C 112.488 225.781,113.231 228.445,113.836 230.700 L 114.937 234.800 121.688 234.800 L 128.440 234.800 128.170 222.500 C 128.022 215.735,127.743 210.029,127.550 209.820 C 127.358 209.611,127.200 206.086,127.200 201.987 C 127.200 197.887,127.065 194.399,126.900 194.235 C 126.735 194.071,126.370 186.886,126.090 178.268 C 125.809 169.651,125.484 160.495,125.367 157.923 L 125.154 153.246 120.477 153.054 C 117.905 152.948,114.983 152.743,113.986 152.597 C 112.351 152.359,112.125 152.426,111.708 153.267 " stroke="none" fill="#fb0404" fill-rule="evenodd"></path></g></svg>